<svg width="139" height="40" viewBox="0 0 139 40" fill="none" xmlns="http://www.w3.org/2000/svg">
<rect width="138.462" height="40" rx="6" fill="#0E121B"/>
<path d="M30.9007 19.7838C30.871 16.5608 33.6074 14.9928 33.7325 14.9198C32.1828 12.7168 29.7807 12.4158 28.9366 12.3918C26.9192 12.1848 24.9623 13.5688 23.9346 13.5688C22.8864 13.5688 21.3038 12.4118 19.5982 12.4458C17.4033 12.4788 15.35 13.7178 14.2238 15.6418C11.8997 19.5648 13.633 25.3298 15.8597 28.5008C16.9735 30.0538 18.2751 31.7878 19.9787 31.7268C21.6453 31.6598 22.2679 30.6908 24.2792 30.6908C26.272 30.6908 26.8566 31.7268 28.5941 31.6878C30.3828 31.6598 31.5089 30.1278 32.5838 28.5608C33.871 26.7808 34.3879 25.0278 34.4084 24.9378C34.3664 24.9238 30.9346 23.6468 30.9007 19.7838Z" fill="white"/>
<path d="M27.6187 10.3058C28.5151 9.2128 29.1284 7.7258 28.9582 6.2168C27.6607 6.2728 26.0382 7.0918 25.1038 8.1608C24.2771 9.1028 23.5387 10.6468 23.7294 12.0988C25.1869 12.2048 26.6833 11.3818 27.6187 10.3058Z" fill="white"/>
<path d="M55.0206 31.5038H52.6914L51.4155 27.5948H46.9806L45.7652 31.5038H43.4976L47.8914 18.1958H50.6052L55.0206 31.5038ZM51.0309 25.9548L49.877 22.4798C49.755 22.1248 49.5263 21.2888 49.1888 19.9728H49.1478C49.0135 20.5388 48.797 21.3748 48.4996 22.4798L47.3663 25.9548H51.0309Z" fill="white"/>
<path d="M66.3197 26.5879C66.3197 28.2199 65.8674 29.5099 64.9628 30.4569C64.1526 31.2999 63.1464 31.7209 61.9454 31.7209C60.649 31.7209 59.7177 31.2669 59.1505 30.3589H59.1095V35.4139H56.9228V25.0669C56.9228 24.0409 56.8951 22.9879 56.8418 21.9079H58.7649L58.8869 23.4289H58.928C59.6572 22.2829 60.7638 21.7109 62.249 21.7109C63.41 21.7109 64.3792 22.1579 65.1546 23.0529C65.9321 23.9489 66.3197 25.1269 66.3197 26.5879ZM64.0921 26.6659C64.0921 25.7319 63.8767 24.9619 63.4438 24.3559C62.971 23.7239 62.3362 23.4079 61.5403 23.4079C61.0008 23.4079 60.5105 23.5839 60.0726 23.9309C59.6336 24.2809 59.3464 24.7379 59.212 25.3039C59.1444 25.5679 59.1105 25.7839 59.1105 25.9539V27.5539C59.1105 28.2519 59.33 28.8409 59.769 29.3219C60.208 29.8029 60.7782 30.0429 61.4797 30.0429C62.3033 30.0429 62.9444 29.7329 63.4028 29.1149C63.8623 28.4959 64.0921 27.6799 64.0921 26.6659Z" fill="white"/>
<path d="M77.64 26.5879C77.64 28.2199 77.1877 29.5099 76.2821 30.4569C75.4728 31.2999 74.4667 31.7209 73.2656 31.7209C71.9692 31.7209 71.038 31.2669 70.4718 30.3589H70.4308V35.4139H68.2441V25.0669C68.2441 24.0409 68.2164 22.9879 68.1631 21.9079H70.0862L70.2082 23.4289H70.2492C70.9774 22.2829 72.0841 21.7109 73.5703 21.7109C74.7303 21.7109 75.6995 22.1579 76.4769 23.0529C77.2513 23.9489 77.64 25.1269 77.64 26.5879ZM75.4123 26.6659C75.4123 25.7319 75.1959 24.9619 74.7631 24.3559C74.2903 23.7239 73.6574 23.4079 72.8605 23.4079C72.32 23.4079 71.8308 23.5839 71.3918 23.9309C70.9528 24.2809 70.6667 24.7379 70.5323 25.3039C70.4656 25.5679 70.4308 25.7839 70.4308 25.9539V27.5539C70.4308 28.2519 70.6503 28.8409 71.0872 29.3219C71.5262 29.8019 72.0964 30.0429 72.8 30.0429C73.6236 30.0429 74.2646 29.7329 74.7231 29.1149C75.1826 28.4959 75.4123 27.6799 75.4123 26.6659Z" fill="white"/>
<path d="M90.2963 27.772C90.2963 28.904 89.8932 29.825 89.084 30.536C88.1948 31.313 86.9568 31.701 85.3661 31.701C83.8973 31.701 82.7199 31.425 81.8286 30.872L82.3353 29.095C83.2953 29.661 84.3486 29.945 85.4963 29.945C86.3199 29.945 86.9609 29.763 87.4214 29.401C87.8799 29.039 88.1086 28.553 88.1086 27.947C88.1086 27.407 87.9199 26.952 87.5414 26.583C87.165 26.214 86.5363 25.871 85.6584 25.554C83.2686 24.685 82.0748 23.412 82.0748 21.738C82.0748 20.644 82.4932 19.747 83.3312 19.049C84.1661 18.35 85.2799 18.001 86.6727 18.001C87.9148 18.001 88.9466 18.212 89.7702 18.633L89.2235 20.371C88.4543 19.963 87.5845 19.759 86.6112 19.759C85.8419 19.759 85.2409 19.944 84.8102 20.312C84.4461 20.641 84.2635 21.042 84.2635 21.517C84.2635 22.043 84.4717 22.478 84.8902 22.82C85.2543 23.136 85.9158 23.478 86.8758 23.847C88.0502 24.308 88.9127 24.847 89.4676 25.465C90.0204 26.081 90.2963 26.852 90.2963 27.772Z" fill="white"/>
<path d="M97.5261 23.5081H95.1158V28.1671C95.1158 29.3521 95.5404 29.9441 96.3917 29.9441C96.7825 29.9441 97.1066 29.9111 97.363 29.8451L97.4235 31.4641C96.9927 31.6211 96.4256 31.7001 95.723 31.7001C94.8594 31.7001 94.1845 31.4431 93.6974 30.9301C93.2122 30.4161 92.9681 29.5541 92.9681 28.3431V23.5061H91.5322V21.9061H92.9681V20.1491L95.1158 19.5171V21.9061H97.5261V23.5081Z" fill="white"/>
<path d="M108.401 26.6269C108.401 28.1019 107.968 29.3129 107.105 30.2599C106.199 31.2349 104.997 31.7209 103.499 31.7209C102.055 31.7209 100.905 31.2539 100.047 30.3199C99.1899 29.3859 98.7612 28.2069 98.7612 26.7859C98.7612 25.2989 99.2023 24.0809 100.087 23.1339C100.97 22.1859 102.162 21.7119 103.661 21.7119C105.105 21.7119 106.267 22.1789 107.144 23.1139C107.983 24.0209 108.401 25.1919 108.401 26.6269ZM106.133 26.6959C106.133 25.8109 105.939 25.0519 105.546 24.4189C105.087 23.6529 104.432 23.2709 103.583 23.2709C102.704 23.2709 102.036 23.6539 101.578 24.4189C101.185 25.0529 100.991 25.8239 100.991 26.7359C100.991 27.6209 101.185 28.3799 101.578 29.0119C102.05 29.7779 102.711 30.1599 103.563 30.1599C104.398 30.1599 105.054 29.7699 105.526 28.9919C105.929 28.3469 106.133 27.5799 106.133 26.6959Z" fill="white"/>
<path d="M115.509 23.7829C115.292 23.7439 115.062 23.7239 114.82 23.7239C114.05 23.7239 113.455 24.0069 113.037 24.5739C112.673 25.0739 112.49 25.7059 112.49 26.4689V31.5039H110.305L110.325 24.9299C110.325 23.8239 110.298 22.8169 110.243 21.9089H112.148L112.228 23.7449H112.288C112.519 23.1139 112.883 22.6059 113.382 22.2249C113.869 21.8819 114.395 21.7109 114.962 21.7109C115.164 21.7109 115.347 21.7249 115.509 21.7499V23.7829Z" fill="white"/>
<path d="M125.288 26.2519C125.288 26.6339 125.263 26.9559 125.208 27.2189H118.648C118.674 28.1669 118.991 28.8919 119.6 29.3919C120.153 29.8389 120.868 30.0629 121.746 30.0629C122.717 30.0629 123.603 29.9119 124.4 29.6089L124.743 31.0889C123.811 31.4849 122.712 31.6819 121.443 31.6819C119.917 31.6819 118.719 31.2439 117.847 30.3689C116.977 29.4939 116.542 28.3189 116.542 26.8449C116.542 25.3979 116.947 24.1929 117.758 23.2319C118.607 22.2059 119.755 21.6929 121.199 21.6929C122.617 21.6929 123.691 22.2059 124.42 23.2319C124.998 24.0469 125.288 25.0549 125.288 26.2519ZM123.203 25.6989C123.217 25.0669 123.075 24.5209 122.778 24.0599C122.4 23.4669 121.818 23.1709 121.036 23.1709C120.321 23.1709 119.739 23.4599 119.295 24.0399C118.931 24.5009 118.715 25.0539 118.648 25.6979H123.203V25.6989Z" fill="white"/>
<path d="M50.3077 10.0092C50.3077 11.1862 49.9456 12.0722 49.2226 12.6672C48.5528 13.2162 47.601 13.4912 46.3682 13.4912C45.7569 13.4912 45.2338 13.4652 44.7959 13.4132V6.98219C45.3672 6.89219 45.9826 6.84619 46.6472 6.84619C47.8215 6.84619 48.7067 7.09519 49.3036 7.59319C49.9723 8.15619 50.3077 8.96119 50.3077 10.0092ZM49.1744 10.0382C49.1744 9.27519 48.9672 8.69019 48.5528 8.28219C48.1385 7.87519 47.5333 7.67119 46.7364 7.67119C46.398 7.67119 46.1097 7.69319 45.8708 7.73919V12.6282C46.0031 12.6482 46.2451 12.6572 46.5969 12.6572C47.4195 12.6572 48.0544 12.4342 48.5015 11.9882C48.9487 11.5422 49.1744 10.8922 49.1744 10.0382Z" fill="white"/>
<path d="M56.3169 11.037C56.3169 11.762 56.1046 12.356 55.68 12.822C55.2349 13.301 54.6451 13.54 53.9087 13.54C53.199 13.54 52.6339 13.311 52.2123 12.851C51.7918 12.392 51.5815 11.813 51.5815 11.115C51.5815 10.385 51.798 9.78605 52.2328 9.32105C52.6677 8.85605 53.2523 8.62305 53.9887 8.62305C54.6985 8.62305 55.2687 8.85205 55.7005 9.31105C56.1108 9.75705 56.3169 10.333 56.3169 11.037ZM55.2021 11.071C55.2021 10.636 55.1056 10.263 54.9139 9.95205C54.6882 9.57605 54.3672 9.38805 53.9498 9.38805C53.518 9.38805 53.1897 9.57605 52.9641 9.95205C52.7713 10.263 52.6759 10.642 52.6759 11.09C52.6759 11.525 52.7723 11.898 52.9641 12.209C53.1969 12.585 53.521 12.773 53.9395 12.773C54.3498 12.773 54.6718 12.582 54.9036 12.199C55.1026 11.882 55.2021 11.506 55.2021 11.071Z" fill="white"/>
<path d="M64.3743 8.71924L62.8614 13.4332H61.8768L61.2502 11.3862C61.0912 10.8752 60.962 10.3672 60.8614 9.86324H60.842C60.7486 10.3812 60.6194 10.8882 60.4532 11.3862L59.7876 13.4332H58.7917L57.3691 8.71924H58.4738L59.0204 10.9602C59.1527 11.4902 59.2614 11.9952 59.3486 12.4732H59.3681C59.4481 12.0792 59.5804 11.5772 59.7671 10.9702L60.4532 8.72024H61.3291L61.9866 10.9222C62.1455 11.4592 62.2748 11.9762 62.3743 12.4742H62.404C62.4768 11.9892 62.5866 11.4722 62.7322 10.9222L63.3189 8.72024H64.3743V8.71924Z" fill="white"/>
<path d="M69.9464 13.4331H68.8716V10.7331C68.8716 9.90112 68.5475 9.48512 67.8972 9.48512C67.5782 9.48512 67.3208 9.59912 67.1208 9.82812C66.9229 10.0571 66.8223 10.3271 66.8223 10.6361V13.4321H65.7475V10.0661C65.7475 9.65212 65.7341 9.20312 65.7085 8.71712H66.6531L66.7034 9.45412H66.7331C66.8582 9.22512 67.0449 9.03612 67.29 8.88512C67.5813 8.70912 67.9075 8.62012 68.2644 8.62012C68.7157 8.62012 69.091 8.76212 69.3895 9.04712C69.7608 9.39612 69.9464 9.91712 69.9464 10.6091V13.4331Z" fill="white"/>
<path d="M72.9108 13.4332H71.8369V6.55615H72.9108V13.4332Z" fill="white"/>
<path d="M79.2388 11.037C79.2388 11.762 79.0265 12.356 78.6019 12.822C78.1568 13.301 77.566 13.54 76.8306 13.54C76.1198 13.54 75.5547 13.311 75.1342 12.851C74.7137 12.392 74.5034 11.813 74.5034 11.115C74.5034 10.385 74.7198 9.78605 75.1547 9.32105C75.5896 8.85605 76.1742 8.62305 76.9096 8.62305C77.6203 8.62305 78.1896 8.85205 78.6224 9.31105C79.0326 9.75705 79.2388 10.333 79.2388 11.037ZM78.1229 11.071C78.1229 10.636 78.0265 10.263 77.8347 9.95205C77.6101 9.57605 77.288 9.38805 76.8716 9.38805C76.4388 9.38805 76.1106 9.57605 75.886 9.95205C75.6932 10.263 75.5978 10.642 75.5978 11.09C75.5978 11.525 75.6942 11.898 75.886 12.209C76.1188 12.585 76.4429 12.773 76.8614 12.773C77.2716 12.773 77.5926 12.582 77.8244 12.199C78.0244 11.882 78.1229 11.506 78.1229 11.071Z" fill="white"/>
<path d="M84.4409 13.433H83.4758L83.3958 12.89H83.366C83.0358 13.323 82.565 13.54 81.9537 13.54C81.4973 13.54 81.1281 13.397 80.8501 13.113C80.5978 12.855 80.4717 12.534 80.4717 12.153C80.4717 11.577 80.7178 11.138 81.2132 10.834C81.7076 10.53 82.403 10.381 83.2983 10.388V10.3C83.2983 9.67905 82.964 9.36905 82.2942 9.36905C81.8173 9.36905 81.3968 9.48605 81.0337 9.71805L80.8153 9.03005C81.2645 8.75905 81.8194 8.62305 82.4737 8.62305C83.7373 8.62305 84.3712 9.27305 84.3712 10.573V12.309C84.3712 12.78 84.3948 13.155 84.4409 13.433ZM83.325 11.813V11.086C82.1394 11.066 81.5466 11.383 81.5466 12.036C81.5466 12.282 81.6142 12.466 81.7527 12.589C81.8912 12.712 82.0676 12.773 82.2778 12.773C82.5137 12.773 82.7342 12.7 82.9353 12.555C83.1373 12.409 83.2614 12.224 83.3076 11.997C83.3189 11.946 83.325 11.884 83.325 11.813Z" fill="white"/>
<path d="M90.5485 13.4332H89.5946L89.5444 12.6762H89.5146C89.21 13.2522 88.691 13.5402 87.9618 13.5402C87.3793 13.5402 86.8941 13.3172 86.5095 12.8712C86.1249 12.4252 85.9331 11.8462 85.9331 11.1352C85.9331 10.3722 86.1413 9.75415 86.5598 9.28215C86.9649 8.84215 87.4613 8.62215 88.0521 8.62215C88.7013 8.62215 89.1557 8.83515 89.4141 9.26215H89.4346V6.55615H90.5105V12.1632C90.5105 12.6222 90.5228 13.0452 90.5485 13.4332ZM89.4346 11.4452V10.6592C89.4346 10.5232 89.4244 10.4132 89.4049 10.3292C89.3444 10.0772 89.2141 9.86515 89.0162 9.69415C88.8162 9.52315 88.5751 9.43715 88.2972 9.43715C87.8962 9.43715 87.5823 9.59215 87.3516 9.90315C87.1228 10.2142 87.0069 10.6112 87.0069 11.0962C87.0069 11.5622 87.1167 11.9402 87.3372 12.2312C87.57 12.5412 87.8839 12.6962 88.2767 12.6962C88.6295 12.6962 88.9116 12.5672 89.1259 12.3082C89.3331 12.0692 89.4346 11.7812 89.4346 11.4452Z" fill="white"/>
<path d="M99.7417 11.037C99.7417 11.762 99.5294 12.356 99.1048 12.822C98.6597 13.301 98.071 13.54 97.3335 13.54C96.6248 13.54 96.0597 13.311 95.6371 12.851C95.2166 12.392 95.0063 11.813 95.0063 11.115C95.0063 10.385 95.2228 9.78605 95.6576 9.32105C96.0925 8.85605 96.6771 8.62305 97.4145 8.62305C98.1233 8.62305 98.6946 8.85205 99.1253 9.31105C99.5356 9.75705 99.7417 10.333 99.7417 11.037ZM98.6279 11.071C98.6279 10.636 98.5315 10.263 98.3397 9.95205C98.113 9.57605 97.793 9.38805 97.3746 9.38805C96.9438 9.38805 96.6156 9.57605 96.3889 9.95205C96.1961 10.263 96.1007 10.642 96.1007 11.09C96.1007 11.525 96.1971 11.898 96.3889 12.209C96.6217 12.585 96.9458 12.773 97.3643 12.773C97.7746 12.773 98.0976 12.582 98.3294 12.199C98.5274 11.882 98.6279 11.506 98.6279 11.071Z" fill="white"/>
<path d="M105.521 13.4331H104.447V10.7331C104.447 9.90112 104.123 9.48512 103.472 9.48512C103.153 9.48512 102.895 9.59912 102.696 9.82812C102.498 10.0571 102.398 10.3271 102.398 10.6361V13.4321H101.322V10.0661C101.322 9.65212 101.31 9.20312 101.284 8.71712H102.228L102.278 9.45412H102.308C102.434 9.22512 102.621 9.03612 102.865 8.88512C103.157 8.70912 103.482 8.62012 103.84 8.62012C104.29 8.62012 104.666 8.76212 104.964 9.04712C105.336 9.39612 105.521 9.91712 105.521 10.6091V13.4331Z" fill="white"/>
<path d="M112.755 9.50392H111.571V11.7939C111.571 12.3759 111.781 12.6669 112.198 12.6669C112.391 12.6669 112.551 12.6509 112.677 12.6179L112.704 13.4129C112.492 13.4909 112.213 13.5299 111.87 13.5299C111.445 13.5299 111.115 13.4039 110.876 13.1519C110.636 12.8999 110.517 12.4759 110.517 11.8809V9.50392H109.81V8.71892H110.517V7.85492L111.57 7.54492V8.71792H112.754V9.50392H112.755Z" fill="white"/>
<path d="M118.445 13.4332H117.369V10.7532C117.369 9.90815 117.045 9.48515 116.396 9.48515C115.897 9.48515 115.557 9.73015 115.37 10.2202C115.338 10.3232 115.32 10.4492 115.32 10.5972V13.4322H114.246V6.55615H115.32V9.39715H115.34C115.679 8.88015 116.164 8.62215 116.793 8.62215C117.238 8.62215 117.606 8.76415 117.898 9.04915C118.263 9.40415 118.445 9.93215 118.445 10.6302V13.4332Z" fill="white"/>
<path d="M124.315 10.8528C124.315 11.0408 124.301 11.1988 124.275 11.3278H121.051C121.066 11.7938 121.22 12.1488 121.518 12.3948C121.791 12.6148 122.143 12.7248 122.574 12.7248C123.05 12.7248 123.485 12.6508 123.877 12.5018L124.045 13.2298C123.587 13.4238 123.047 13.5208 122.423 13.5208C121.674 13.5208 121.084 13.3058 120.658 12.8758C120.229 12.4458 120.017 11.8688 120.017 11.1448C120.017 10.4338 120.215 9.84177 120.614 9.36977C121.03 8.86577 121.593 8.61377 122.304 8.61377C122.999 8.61377 123.527 8.86577 123.884 9.36977C124.172 9.76977 124.315 10.2648 124.315 10.8528ZM123.289 10.5818C123.298 10.2708 123.227 10.0028 123.081 9.77677C122.895 9.48577 122.61 9.33977 122.226 9.33977C121.875 9.33977 121.589 9.48177 121.37 9.76677C121.192 9.99377 121.086 10.2648 121.051 10.5818H123.289Z" fill="white"/>
</svg>
