<svg width="15" height="18" viewBox="0 0 15 18" fill="none" xmlns="http://www.w3.org/2000/svg">
<path d="M7.71792 5.41572C7.06092 5.41572 6.04392 4.66872 4.97292 4.69572C3.55992 4.71372 2.26392 5.51472 1.53492 6.78372C0.0679241 9.33072 1.15692 13.0927 2.58792 15.1627C3.28992 16.1707 4.11792 17.3047 5.21592 17.2687C6.26892 17.2237 6.66492 16.5847 7.94292 16.5847C9.21192 16.5847 9.57192 17.2687 10.6879 17.2417C11.8219 17.2237 12.5419 16.2157 13.2349 15.1987C14.0359 14.0287 14.3689 12.8947 14.3869 12.8317C14.3599 12.8227 12.1819 11.9857 12.1549 9.46572C12.1369 7.35972 13.8739 6.35172 13.9549 6.30672C12.9649 4.85772 11.4439 4.69572 10.9129 4.65972C9.52692 4.55172 8.36592 5.41572 7.71792 5.41572ZM10.0579 3.29172C10.6429 2.58972 11.0299 1.60872 10.9219 0.636719C10.0849 0.672719 9.07692 1.19472 8.47392 1.89672C7.93392 2.51772 7.46592 3.51672 7.59192 4.47072C8.51892 4.54272 9.47292 3.99372 10.0579 3.29172Z" fill="black"/>
</svg>
