<svg width="139" height="40" viewBox="0 0 139 40" fill="none" xmlns="http://www.w3.org/2000/svg">
<rect x="0.461426" width="138.462" height="40" rx="6" fill="#0E121B"/>
<path d="M49.0279 10.244C49.0279 11.079 48.7718 11.7477 48.2674 12.2465C47.6874 12.8377 46.932 13.1352 46.0064 13.1352C45.1217 13.1352 44.3663 12.8327 43.7467 12.2365C43.1257 11.6315 42.8159 10.889 42.8159 10.0002C42.8159 9.11148 43.1257 8.36898 43.7467 7.76898C44.3663 7.16773 45.1217 6.86523 46.0064 6.86523C46.4468 6.86523 46.8667 6.95398 47.2675 7.11898C47.6669 7.28523 47.9921 7.51023 48.2277 7.78773L47.6925 8.31523C47.2816 7.84149 46.7221 7.60774 46.0064 7.60774C45.3611 7.60774 44.8016 7.82773 44.3267 8.27148C43.8568 8.71648 43.6212 9.29273 43.6212 10.0002C43.6212 10.7077 43.8568 11.289 44.3267 11.734C44.8016 12.1727 45.3611 12.3977 46.0064 12.3977C46.6914 12.3977 47.2675 12.1727 47.722 11.729C48.0216 11.4352 48.1919 11.0302 48.2367 10.5127H46.0064V9.79023H48.9818C49.0176 9.94648 49.0279 10.0977 49.0279 10.244Z" fill="white" stroke="white" stroke-width="0.16" stroke-miterlimit="10"/>
<path d="M53.7482 7.73869H50.9533V9.63869H53.4729V10.3612H50.9533V12.2612H53.7482V12.9974H50.1621V7.00244H53.7482V7.73869Z" fill="white" stroke="white" stroke-width="0.16" stroke-miterlimit="10"/>
<path d="M57.0797 12.9974H56.2885V7.73869H54.5742V7.00244H58.7953V7.73869H57.0797V12.9974Z" fill="white" stroke="white" stroke-width="0.16" stroke-miterlimit="10"/>
<path d="M61.8501 12.9974V7.00244H62.64V12.9974H61.8501Z" fill="white" stroke="white" stroke-width="0.16" stroke-miterlimit="10"/>
<path d="M66.1413 12.9974H65.3564V7.73869H63.6357V7.00244H67.862V7.73869H66.1413V12.9974Z" fill="white" stroke="white" stroke-width="0.16" stroke-miterlimit="10"/>
<path d="M75.8537 12.2265C75.2481 12.8327 74.4978 13.1352 73.6029 13.1352C72.7029 13.1352 71.9526 12.8327 71.3471 12.2265C70.7428 11.6215 70.4419 10.879 70.4419 10.0002C70.4419 9.12148 70.7428 8.37898 71.3471 7.77398C71.9526 7.16773 72.7029 6.86523 73.6029 6.86523C74.4927 6.86523 75.243 7.16773 75.8486 7.77898C76.458 8.38898 76.7588 9.12648 76.7588 10.0002C76.7588 10.879 76.458 11.6215 75.8537 12.2265ZM71.9322 11.724C72.3879 12.1727 72.9423 12.3977 73.6029 12.3977C74.2584 12.3977 74.8179 12.1727 75.2686 11.724C75.7231 11.2752 75.9535 10.699 75.9535 10.0002C75.9535 9.30148 75.7231 8.72523 75.2686 8.27648C74.8179 7.82773 74.2584 7.60273 73.6029 7.60273C72.9423 7.60273 72.3879 7.82773 71.9322 8.27648C71.4777 8.72523 71.2472 9.30148 71.2472 10.0002C71.2472 10.699 71.4777 11.2752 71.9322 11.724Z" fill="white" stroke="white" stroke-width="0.16" stroke-miterlimit="10"/>
<path d="M77.8691 12.9974V7.00244H78.8294L81.815 11.6649H81.8496L81.815 10.5124V7.00244H82.6049V12.9974H81.7804L78.654 8.10494H78.6194L78.654 9.26244V12.9974H77.8691Z" fill="white" stroke="white" stroke-width="0.16" stroke-miterlimit="10"/>
<path d="M70.2476 21.7526C67.842 21.7526 65.8767 23.5401 65.8767 26.0064C65.8767 28.4526 67.842 30.2589 70.2476 30.2589C72.6584 30.2589 74.6237 28.4526 74.6237 26.0064C74.6237 23.5401 72.6584 21.7526 70.2476 21.7526ZM70.2476 28.5839C68.9276 28.5839 67.792 27.5201 67.792 26.0064C67.792 24.4726 68.9276 23.4276 70.2476 23.4276C71.5676 23.4276 72.7083 24.4726 72.7083 26.0064C72.7083 27.5201 71.5676 28.5839 70.2476 28.5839ZM60.7108 21.7526C58.3 21.7526 56.3399 23.5401 56.3399 26.0064C56.3399 28.4526 58.3 30.2589 60.7108 30.2589C63.1203 30.2589 65.0817 28.4526 65.0817 26.0064C65.0817 23.5401 63.1203 21.7526 60.7108 21.7526ZM60.7108 28.5839C59.3895 28.5839 58.25 27.5201 58.25 26.0064C58.25 24.4726 59.3895 23.4276 60.7108 23.4276C62.0307 23.4276 63.1664 24.4726 63.1664 26.0064C63.1664 27.5201 62.0307 28.5839 60.7108 28.5839ZM49.3623 23.0564V24.8639H53.7831C53.6538 25.8739 53.3081 26.6164 52.7781 27.1339C52.1328 27.7589 51.1278 28.4526 49.3623 28.4526C46.6417 28.4526 44.5113 26.3089 44.5113 23.6526C44.5113 20.9964 46.6417 18.8526 49.3623 18.8526C50.8333 18.8526 51.9037 19.4139 52.6936 20.1414L53.9982 18.8676C52.8933 17.8376 51.4235 17.0464 49.3623 17.0464C45.6315 17.0464 42.4961 20.0101 42.4961 23.6526C42.4961 27.2951 45.6315 30.2589 49.3623 30.2589C51.3787 30.2589 52.8933 29.6139 54.084 28.4039C55.3041 27.2126 55.6843 25.5376 55.6843 24.1851C55.6843 23.7651 55.6485 23.3789 55.5845 23.0564H49.3623ZM95.7676 24.4576C95.4079 23.5064 94.2978 21.7526 92.0369 21.7526C89.7964 21.7526 87.931 23.4764 87.931 26.0064C87.931 28.3889 89.7771 30.2589 92.2519 30.2589C94.253 30.2589 95.4078 29.0676 95.8828 28.3739L94.3977 27.4076C93.9022 28.1151 93.2275 28.5839 92.2519 28.5839C91.2828 28.5839 90.5876 28.1501 90.142 27.2951L95.9686 24.9414L95.7676 24.4576ZM89.8271 25.8739C89.7771 24.2339 91.1317 23.3939 92.1021 23.3939C92.8626 23.3939 93.5079 23.7651 93.723 24.2964L89.8271 25.8739ZM85.0913 30.0001H87.0066V17.5001H85.0913V30.0001ZM81.9546 22.7001H81.8906C81.4604 22.2026 80.6397 21.7526 79.6001 21.7526C77.4185 21.7526 75.4238 23.6226 75.4238 26.0201C75.4238 28.4039 77.4185 30.2589 79.6001 30.2589C80.6397 30.2589 81.4604 29.8051 81.8906 29.2926H81.9546V29.9026C81.9546 31.5289 81.0648 32.4026 79.6296 32.4026C78.4594 32.4026 77.7335 31.5776 77.4339 30.8839L75.7682 31.5626C76.2483 32.6901 77.5197 34.0776 79.6296 34.0776C81.8752 34.0776 83.77 32.7876 83.77 29.6489V22.0114H81.9546V22.7001ZM79.764 28.5839C78.444 28.5839 77.3391 27.5051 77.3391 26.0201C77.3391 24.5214 78.444 23.4276 79.764 23.4276C81.0648 23.4276 82.0903 24.5214 82.0903 26.0201C82.0903 27.5051 81.0648 28.5839 79.764 28.5839ZM104.735 17.5001H100.154V30.0001H102.064V25.2639H104.735C106.856 25.2639 108.937 23.7651 108.937 21.3814C108.937 18.9989 106.851 17.5001 104.735 17.5001ZM104.785 23.5251H102.064V19.2389H104.785C106.211 19.2389 107.025 20.3951 107.025 21.3814C107.025 22.3489 106.211 23.5251 104.785 23.5251ZM116.593 21.7289C115.213 21.7289 113.777 22.3239 113.187 23.6426L114.882 24.3364C115.247 23.6426 115.918 23.4176 116.627 23.4176C117.618 23.4176 118.623 23.9989 118.639 25.0251V25.1564C118.293 24.9614 117.553 24.6726 116.643 24.6726C114.817 24.6726 112.957 25.6539 112.957 27.4851C112.957 29.1601 114.452 30.2389 116.133 30.2389C117.419 30.2389 118.128 29.6726 118.573 29.0139H118.639V29.9801H120.484V25.1851C120.484 22.9689 118.788 21.7289 116.593 21.7289ZM116.362 28.5789C115.738 28.5789 114.867 28.2764 114.867 27.5201C114.867 26.5526 115.953 26.1814 116.892 26.1814C117.734 26.1814 118.128 26.3626 118.639 26.6014C118.489 27.7589 117.469 28.5789 116.362 28.5789ZM127.205 22.0026L125.009 27.4214H124.944L122.674 22.0026H120.614L124.025 29.5751L122.079 33.7889H124.075L129.33 22.0026H127.205ZM109.986 30.0001H111.902V17.5001H109.986V30.0001Z" fill="white"/>
<path d="M11.1493 7.53869C10.8484 7.84619 10.6743 8.32494 10.6743 8.94494V31.0599C10.6743 31.6799 10.8484 32.1587 11.1493 32.4662L11.2236 32.5337L23.9163 20.1462V19.8537L11.2236 7.46619L11.1493 7.53869Z" fill="url(#paint0_linear_1827_8961)"/>
<path d="M28.1427 24.2773L23.9165 20.1461V19.8536L28.1479 15.7223L28.2426 15.7761L33.2536 18.5598C34.6837 19.3498 34.6837 20.6498 33.2536 21.4448L28.2426 24.2236L28.1427 24.2773Z" fill="url(#paint1_linear_1827_8961)"/>
<path d="M28.2426 24.224L23.9165 20.0002L11.1494 32.4665C11.6244 32.954 12.399 33.0127 13.2798 32.5252L28.2426 24.224Z" fill="url(#paint2_linear_1827_8961)"/>
<path d="M28.2426 15.7763L13.2798 7.475C12.399 6.9925 11.6244 7.05125 11.1494 7.53875L23.9165 20L28.2426 15.7763Z" fill="url(#paint3_linear_1827_8961)"/>
<defs>
<linearGradient id="paint0_linear_1827_8961" x1="22.7894" y1="31.2902" x2="6.01179" y2="14.1061" gradientUnits="userSpaceOnUse">
<stop stop-color="#00A0FF"/>
<stop offset="0.0066" stop-color="#00A1FF"/>
<stop offset="0.2601" stop-color="#00BEFF"/>
<stop offset="0.5122" stop-color="#00D2FF"/>
<stop offset="0.7604" stop-color="#00DFFF"/>
<stop offset="1" stop-color="#00E3FF"/>
</linearGradient>
<linearGradient id="paint1_linear_1827_8961" x1="35.1159" y1="19.9984" x2="10.3326" y2="19.9984" gradientUnits="userSpaceOnUse">
<stop stop-color="#FFE000"/>
<stop offset="0.4087" stop-color="#FFBD00"/>
<stop offset="0.7754" stop-color="#FFA500"/>
<stop offset="1" stop-color="#FF9C00"/>
</linearGradient>
<linearGradient id="paint2_linear_1827_8961" x1="25.8901" y1="17.7041" x2="3.13837" y2="-5.59896" gradientUnits="userSpaceOnUse">
<stop stop-color="#FF3A44"/>
<stop offset="1" stop-color="#C31162"/>
</linearGradient>
<linearGradient id="paint3_linear_1827_8961" x1="7.93568" y1="39.8238" x2="18.0954" y2="29.418" gradientUnits="userSpaceOnUse">
<stop stop-color="#32A071"/>
<stop offset="0.0685" stop-color="#2DA771"/>
<stop offset="0.4762" stop-color="#15CF74"/>
<stop offset="0.8009" stop-color="#06E775"/>
<stop offset="1" stop-color="#00F076"/>
</linearGradient>
</defs>
</svg>
