<svg width="16" height="18" viewBox="0 0 16 18" fill="none" xmlns="http://www.w3.org/2000/svg">
<path fill-rule="evenodd" clip-rule="evenodd" d="M14.0962 12.5595C14.102 12.5471 14.1076 12.5347 14.1129 12.5223C14.374 11.9158 14.4113 9.91803 13.4788 8.5624C13.114 8.03195 12.7206 7.58344 12.3634 7.17625C11.8078 6.5428 11.3399 6.00935 11.2036 5.42303C11.0579 4.7957 11.0229 4.04731 10.9956 3.46367C10.981 3.15119 10.9686 2.88594 10.9425 2.71178L10.9419 2.7074C10.8664 2.202 10.6015 0.427571 8.74195 0.0718611C6.87704 -0.284884 5.64619 0.749676 5.4597 1.78424C5.31051 2.61188 5.39754 4.50739 5.4597 5.35169C5.52187 5.62519 5.52684 6.29348 5.04942 6.77866L5.02908 6.79933C4.4358 7.40214 3.7033 8.14641 3.4083 9.20452C3.16959 10.0607 2.6872 10.8693 2.47584 11.1666C2.36075 11.3968 2.20693 11.8712 2.35667 12.1858C2.31313 12.2394 2.27283 12.3004 2.23578 12.3686C2.04993 12.7104 1.88462 12.8755 1.76951 12.9494C1.67802 13.0081 1.63095 13.0036 1.62342 13.0028L1.62244 13.0027L1.59789 12.991L1.56582 12.9873C1.34087 12.9612 0.998641 12.9719 0.71887 13.1091C0.575248 13.1795 0.442649 13.2862 0.357387 13.4423C0.271919 13.5988 0.24285 13.7889 0.277253 14.011C0.424062 14.9588 0.306517 15.3746 0.187919 15.5731C0.109037 15.7051 -0.0056653 15.9366 0.000217577 16.1785C0.00327693 16.3044 0.0391259 16.4369 0.132341 16.5561C0.2251 16.6746 0.363979 16.7663 0.548858 16.8287C0.876106 16.9391 1.42609 17.0749 1.91856 17.1904C2.13162 17.2404 2.33311 17.2865 2.5041 17.3255C2.73571 17.3784 2.91147 17.4186 2.98408 17.4384C3.23726 17.5076 3.75202 17.6834 4.0062 17.7876C4.15172 17.8473 4.45888 17.9416 4.78731 17.975C5.10493 18.0072 5.50365 17.9887 5.77164 17.7557C6.00215 17.5552 6.16686 17.2977 6.26427 17.0427C6.27795 17.0069 6.29042 16.9708 6.30162 16.9347C7.03166 16.7919 8.55593 16.687 10.2799 17.1368C10.3198 17.2599 10.377 17.3758 10.4565 17.4794C10.7027 17.8005 11.0856 17.9397 11.4359 17.9834C11.7851 18.0269 12.1348 17.9804 12.3545 17.8963C12.5754 17.8118 12.8315 17.612 13.0515 17.4279C13.1344 17.3585 13.2129 17.2908 13.2859 17.2277L13.2865 17.2273C13.4204 17.1116 13.5362 17.0117 13.628 16.9459C13.7726 16.8421 14.0108 16.6843 14.2589 16.5349C14.5097 16.3839 14.7585 16.2488 14.9281 16.1839C15.1262 16.1082 15.3356 16.0036 15.5127 15.8825C15.6847 15.7651 15.8491 15.6168 15.9254 15.4464C15.9866 15.3099 16.0264 15.172 15.9793 15.0217C15.9363 14.8847 15.8288 14.7673 15.6994 14.6436C15.5713 14.5211 15.4044 14.4077 15.2592 14.3091L15.205 14.2723C15.0338 14.1553 14.9167 14.0673 14.8648 13.993C14.7389 13.8123 14.6694 13.5608 14.5941 13.2007C14.5537 13.0071 14.4763 12.8063 14.3006 12.6693C14.2399 12.622 14.1717 12.5856 14.0962 12.5595ZM5.60896 15.0078C5.80168 15.0048 6.01487 14.9371 6.05648 14.6984C6.13107 14.2703 5.86998 13.8422 4.97483 13.2714C4.07967 12.7006 3.70669 12.2369 3.74398 11.8801C3.78128 11.5234 4.07967 9.70398 4.97483 8.5624C4.96239 8.46726 4.95991 8.19852 5.04942 7.88458C5.13894 7.57064 5.43484 7.13542 5.5716 6.95704C5.69593 6.79056 5.95204 6.42193 5.98188 6.27923C6.00053 6.19004 6.00985 6.02951 6.01918 5.86897C6.02222 5.81659 6.02526 5.76422 6.02863 5.71432C6.06499 5.78467 6.10879 5.85851 6.16023 5.93134C6.28888 6.11346 6.47552 6.30358 6.72898 6.40747C7.32018 6.64981 7.86675 6.52385 8.30907 6.29309C8.51907 6.18353 8.67212 6.09204 8.82129 6.00286L8.82214 6.00236C8.97109 5.91332 9.11624 5.82658 9.31613 5.7223C9.39649 5.68037 9.46495 5.6324 9.52307 5.5807C9.61689 5.78406 9.74019 6.04831 9.7863 6.13652C9.79819 6.15928 9.81957 6.19745 9.84755 6.24742C9.99509 6.51088 10.3263 7.10234 10.4204 7.49215C10.5099 7.86317 10.5571 8.1224 10.5696 8.20564C10.8804 8.49104 11.5319 9.32582 11.6512 10.3818C11.753 11.2824 11.6631 12.0049 11.5804 12.3676L11.472 12.3487C11.3161 12.3032 11.0727 12.2701 10.861 12.3501C10.7461 12.3935 10.6396 12.471 10.5701 12.5946C10.502 12.7157 10.4785 12.8649 10.4958 13.0386C10.5563 13.6465 10.5661 14.2699 10.4885 14.8145C10.0619 15.2368 9.31739 15.8019 8.44356 15.9826C7.53762 16.17 6.65344 15.9698 6.1455 15.7802C6.05498 15.6234 5.9445 15.4726 5.82321 15.307L5.79897 15.2739C5.76216 15.2236 5.69578 15.1305 5.60896 15.0078ZM11.7674 12.7633C11.7198 13.1184 11.7776 13.6267 12.2853 13.6995C12.8863 13.7857 13.5356 13.3626 13.9019 12.8777C13.9769 12.8916 14.0283 12.9173 14.065 12.9459C14.1411 13.0052 14.1943 13.1076 14.2284 13.2707C14.3023 13.6241 14.382 13.9434 14.5545 14.1908C14.6519 14.3305 14.8331 14.4566 14.9882 14.5626L15.0426 14.5996C15.1922 14.7014 15.3314 14.7961 15.4357 14.8958C15.5674 15.0218 15.609 15.0828 15.622 15.1242C15.6308 15.1523 15.6333 15.1928 15.5826 15.3059C15.547 15.3853 15.4504 15.4867 15.2959 15.5922C15.1468 15.6942 14.9645 15.7858 14.7896 15.8527C14.5862 15.9305 14.3129 16.0808 14.0602 16.233C13.8047 16.3869 13.558 16.5502 13.4042 16.6605C13.2991 16.7358 13.1609 16.8551 13.0171 16.9791L13.0163 16.9797C12.9464 17.04 12.8752 17.1014 12.8059 17.1594C12.5782 17.35 12.3682 17.5069 12.216 17.5651C12.0628 17.6237 11.7784 17.6663 11.4842 17.6296C11.1911 17.5931 10.9213 17.4825 10.7572 17.2685C10.5936 17.055 10.5511 16.7273 10.583 16.34C10.6114 15.9946 10.6951 15.6372 10.7669 15.3307L10.7889 15.2365C10.9442 14.5683 10.9425 13.7624 10.8671 13.0048C10.8546 12.8787 10.8752 12.8053 10.8986 12.7635C10.9207 12.7243 10.9531 12.6988 10.998 12.6819C11.1003 12.6432 11.2525 12.6562 11.3709 12.6922L11.3823 12.6957L11.3941 12.6977C11.462 12.7095 11.5935 12.7326 11.7674 12.7633ZM9.56251 3.35391C9.58602 3.75858 9.47621 4.09242 9.39178 4.28398C9.37445 4.28228 9.35675 4.28142 9.33872 4.28142C9.22876 4.28142 9.10474 4.25657 8.99321 4.22474C9.22457 4.0073 9.29331 3.56018 9.04033 3.31822C8.74195 3.03282 8.40626 3.17552 8.29437 3.42524C8.23972 3.54719 8.23789 3.70193 8.25324 3.83103C8.20975 3.80985 8.16654 3.79107 8.12287 3.7746C8.05466 3.74888 7.98687 3.72934 7.91702 3.71469C7.86471 3.55787 7.83599 3.34957 7.88409 3.10419C7.99598 2.5334 8.63005 2.49773 8.74195 2.49773C8.85384 2.49773 9.52521 2.71177 9.56251 3.35391ZM6.87704 2.99718C7.00831 3.14785 7.1211 3.47527 7.05931 3.73062C6.95044 3.76037 6.84538 3.80083 6.74511 3.84901C6.76121 3.38241 6.37866 3.17875 6.24296 3.2112C6.09377 3.24687 5.98188 3.38957 5.98188 3.74632C5.98188 3.94074 6.10881 4.09101 6.23297 4.18586L6.22675 4.19115L6.22243 4.19484C6.13945 4.26594 6.06168 4.34121 5.99064 4.41786C5.89207 4.26372 5.77952 4.05306 5.75809 3.88904C5.72079 3.60364 5.68349 2.85448 6.05647 2.71178C6.42946 2.56908 6.69055 2.78313 6.87704 2.99718ZM3.02452 12.2814C3.20575 12.3385 3.39565 12.5073 3.51718 12.6611L3.58847 12.7633L3.78643 13.0471C3.95138 13.2835 4.17404 13.6024 4.40487 13.9324C4.86564 14.5913 5.3614 15.2981 5.49341 15.4785L5.49554 15.4814C5.75979 15.8424 5.92006 16.0614 5.98549 16.3744C6.01417 16.5115 5.9946 16.7092 5.91394 16.9203C5.83419 17.1291 5.70051 17.3354 5.52074 17.4917C5.37845 17.6154 5.12445 17.6504 4.82665 17.6202C4.53966 17.5911 4.26869 17.5071 4.15313 17.4597C3.88513 17.3499 3.35554 17.1689 3.08655 17.0954C3.00703 17.0737 2.81531 17.0299 2.57158 16.9741C2.40207 16.9354 2.20694 16.8908 2.00741 16.844C1.51148 16.7276 0.979817 16.5958 0.672994 16.4923C0.540838 16.4476 0.469914 16.3921 0.430964 16.3423C0.392469 16.2931 0.374702 16.2362 0.373099 16.1702C0.369658 16.0287 0.441446 15.8678 0.511758 15.7501C0.691545 15.4491 0.797786 14.9373 0.646209 13.9587C0.620935 13.7956 0.645948 13.6845 0.687994 13.6075C0.730245 13.5301 0.79859 13.4709 0.889015 13.4266C1.06911 13.3382 1.31318 13.3213 1.49625 13.3388C1.63503 13.3872 1.80968 13.3533 1.97743 13.2456C2.16319 13.1262 2.36465 12.9048 2.5667 12.5332C2.65082 12.3784 2.73528 12.3111 2.80184 12.2829C2.86657 12.2554 2.93924 12.2545 3.02452 12.2814ZM5.94236 5.13659C5.99936 4.97888 6.18866 4.70273 6.47129 4.46057C6.7624 4.21114 7.11685 4.02858 7.4721 4.03169C7.70322 4.03372 7.84723 4.05413 7.98606 4.10648C8.1297 4.16065 8.28051 4.25365 8.51816 4.42412L8.53161 4.43377L8.54665 4.44096C8.68064 4.50504 9.02733 4.63817 9.33872 4.63817C9.3689 4.63817 9.38051 4.64534 9.38565 4.64909C9.39311 4.65452 9.40479 4.66674 9.41662 4.69373C9.41662 4.69373 9.25522 4.67385 9.15223 4.67385C9.05257 4.67385 8.84664 4.71388 8.68467 4.86879C8.62112 4.92957 8.48202 5.03855 8.32411 5.14212C8.16257 5.24807 8.00671 5.3314 7.90745 5.35853C7.6516 5.42844 7.23018 5.52805 6.77944 5.49489C6.57925 5.48016 6.46552 5.41616 6.38903 5.35631C6.35422 5.32907 6.32701 5.3028 6.29721 5.27403L6.27809 5.25563C6.26079 5.23908 6.23916 5.21883 6.21584 5.20094C6.19286 5.18332 6.15904 5.16067 6.11545 5.14677C6.05311 5.1269 5.99363 5.12737 5.94236 5.13659Z" fill="black"/>
</svg>
